HIERARCHY
ROOT root
{
	OFFSET 0.000000 0.000000 0.000000
	CHANNELS 6 Xposition Yposition Zposition Zrotation Yrotation Xrotation
	JOINT lhip
	{
		OFFSET 0.058581 -0.082280 -0.017664
		CHANNELS 3 Zrotation Yrotation Xrotation
		JOINT lknee
		{
			OFFSET 0.043451 -0.386469 0.008037
			CHANNELS 3 Zrotation Yrotation Xrotation
			JOINT lankle
			{
				OFFSET -0.014790 -0.426874 -0.037428
				CHANNELS 3 Zrotation Yrotation Xrotation
				JOINT ltoe
				{
					OFFSET 0.041054 -0.060286 0.122042
					CHANNELS 3 Zrotation Yrotation Xrotation
					End Site
					{
						OFFSET 0.000000 0.000000 0.000000
					}
				}
			}
		}
	}
	JOINT rhip
	{
		OFFSET -0.060310 -0.090513 -0.013543
		CHANNELS 3 Zrotation Yrotation Xrotation
		JOINT rknee
		{
			OFFSET -0.043257 -0.383688 -0.004843
			CHANNELS 3 Zrotation Yrotation Xrotation
			JOINT rankle
			{
				OFFSET 0.019056 -0.420046 -0.034562
				CHANNELS 3 Zrotation Yrotation Xrotation
				JOINT rtoe
				{
					OFFSET -0.034840 -0.062106 0.130323
					CHANNELS 3 Zrotation Yrotation Xrotation
					End Site
					{
						OFFSET 0.000000 0.000000 0.000000
					}
				}
			}
		}
	}
	JOINT lowerback
	{
		OFFSET 0.004439 0.124404 -0.038385
		CHANNELS 3 Zrotation Yrotation Xrotation
		JOINT upperback
		{
			OFFSET 0.004488 0.137956 0.026820
			CHANNELS 3 Zrotation Yrotation Xrotation
			JOINT chest
			{
				OFFSET -0.002265 0.056032 0.002855
				CHANNELS 3 Zrotation Yrotation Xrotation
				JOINT lowerneck
				{
					OFFSET -0.013390 0.211636 -0.033468
					CHANNELS 3 Zrotation Yrotation Xrotation
					JOINT upperneck
					{
						OFFSET 0.010113 0.088937 0.050410
						CHANNELS 3 Zrotation Yrotation Xrotation
						End Site
						{
							OFFSET 0.000000 0.000000 0.000000
						}
					}
				}
				JOINT lclavicle
				{
					OFFSET 0.071702 0.114000 -0.018898
					CHANNELS 3 Zrotation Yrotation Xrotation
					JOINT lshoulder
					{
						OFFSET 0.122921 0.045205 -0.019046
						CHANNELS 3 Zrotation Yrotation Xrotation
						JOINT lelbow
						{
							OFFSET 0.255332 -0.015649 -0.022946
							CHANNELS 3 Zrotation Yrotation Xrotation
							JOINT lwrist
							{
								OFFSET 0.265709 0.012698 -0.007375
								CHANNELS 3 Zrotation Yrotation Xrotation
								End Site
								{
									OFFSET 0.000000 0.000000 0.000000
								}
							}
						}
					}
				}
				JOINT rclavicle
				{
					OFFSET -0.082954 0.112472 -0.023707
					CHANNELS 3 Zrotation Yrotation Xrotation
					JOINT rshoulder
					{
						OFFSET -0.113228 0.046853 -0.008472
						CHANNELS 3 Zrotation Yrotation Xrotation
						JOINT relbow
						{
							OFFSET -0.260127 -0.014369 -0.031269
							CHANNELS 3 Zrotation Yrotation Xrotation
							JOINT rwrist
							{
								OFFSET -0.269108 0.006794 -0.006027
								CHANNELS 3 Zrotation Yrotation Xrotation
								End Site
								{
									OFFSET 0.000000 0.000000 0.000000
								}
							}
						}
					}
				}
			}
		}
	}
}
MOTION
Frames: 10
Frame Time: 0.033333
1.761450 0.713255 0.986375 -90.190067 2.487832 86.964154 2.523487 -1.413786 6.559661 -1.868930 -13.784972 4.046563 5.266313 10.562048 -20.366513 0.000000 -0.000000 0.000000 2.783703 -3.007575 3.185942 3.625624 1.811686 7.178520 2.341650 -6.006817 -14.485781 0.000000 -0.000000 0.000000 -1.664511 2.891263 3.673312 0.916635 -0.750958 1.386007 1.321632 -0.778164 5.038099 4.701562 2.011731 -0.024584 3.114466 -1.797670 6.883398 -24.813022 7.727827 3.838905 -63.492840 -3.191747 6.553627 11.648335 -21.564135 5.532803 -2.326410 -0.390789 -8.326328 22.972808 -4.850015 2.991646 63.043765 0.415650 10.202445 -15.809783 23.638148 -1.802332 6.307356 0.002353 -7.921797 
1.761675 0.713770 0.986674 -90.145071 2.383738 86.886111 2.432249 -1.435982 6.688743 -1.825388 -13.828281 3.913387 5.222652 10.494650 -20.207057 0.000000 -0.000000 0.000000 2.710330 -2.878170 3.305031 3.576455 1.620893 7.124444 2.567081 -5.871351 -14.369972 0.000000 -0.000000 0.000000 -1.795768 2.976823 3.864170 0.991835 -0.622865 1.389441 1.310905 -0.755958 5.073951 4.898444 1.938328 -0.161511 3.282853 -2.021056 6.675396 -24.817493 7.863002 3.569771 -63.387207 -3.108935 6.666336 11.581955 -21.568393 5.409653 -2.281965 -0.644188 -8.260585 22.991544 -5.038500 2.732384 62.842695 0.246650 10.257156 -15.725563 23.623092 -1.716568 6.158320 0.017864 -7.709364 
1.761668 0.714408 0.986739 -89.990282 2.339776 86.959202 2.483123 -1.379796 6.505245 -1.889736 -13.880701 4.043950 5.242940 10.452684 -20.149917 0.000000 -0.000000 0.000000 2.682976 -2.964034 3.293591 3.642260 1.625799 7.002168 2.619012 -5.924899 -14.410335 0.000000 -0.000000 0.000000 -1.843458 3.045448 3.775708 0.954044 -0.567484 1.325191 1.309586 -0.660268 5.110185 4.896715 2.173508 -0.072344 3.695590 -1.910482 6.765209 -24.578220 7.890531 3.605511 -63.374958 -3.130539 6.682983 11.420594 -21.888685 5.450725 -2.002927 -0.553075 -8.254180 22.922496 -5.184035 2.801238 62.864382 0.072604 10.152343 -15.674216 23.728489 -1.699638 6.217942 -0.047832 -7.787368 
1.762032 0.715175 0.986633 -89.829744 2.267475 87.086318 2.526185 -1.459868 6.255297 -2.062518 -13.945890 4.218071 5.275518 10.426641 -20.119583 0.000000 -0.000000 0.000000 2.674120 -2.942207 3.145571 3.639868 1.567773 7.002547 2.682991 -5.980088 -14.393997 0.000000 -0.000000 0.000000 -1.861329 3.076738 3.731000 0.949791 -0.531191 1.186654 1.254027 -0.659092 4.980743 4.901803 1.615456 0.545407 3.551425 -2.098330 7.103805 -24.481598 7.856127 3.938338 -63.257440 -3.312245 6.649292 11.506873 -22.495294 5.237477 -1.938218 -0.537023 -8.647742 22.663903 -5.194551 3.152087 63.093516 0.111083 9.996327 -15.824654 23.750754 -1.804585 6.246081 -0.069927 -8.008610 
1.762422 0.715592 0.986816 -89.647115 2.226564 87.141107 2.493128 -1.648600 6.194827 -2.026955 -13.948002 4.123340 5.163511 10.418999 -20.026859 0.000000 -0.000000 0.000000 2.677106 -2.911460 3.097572 3.645269 1.449502 6.926622 2.650204 -6.153787 -14.480386 0.000000 -0.000000 0.000000 -1.916568 3.064177 3.694745 0.935645 -0.495249 1.159046 1.255783 -0.693928 5.113621 5.063774 1.815085 0.402608 3.715772 -2.038239 7.075954 -24.556557 7.829216 3.787865 -63.095729 -3.485402 6.765232 11.606546 -22.864813 4.981372 -1.658545 -0.791716 -8.763750 22.702222 -5.235991 2.966145 62.991508 0.101996 10.154115 -15.801428 23.822533 -1.896492 6.152043 -0.026274 -8.128857 
1.762667 0.716007 0.986819 -89.555971 2.189256 87.015486 2.488559 -1.471135 6.295778 -1.966150 -14.034822 4.110345 5.109365 10.309456 -20.045574 0.000000 -0.000000 0.000000 2.624990 -2.985169 3.264378 3.668001 1.336478 6.908459 2.653165 -5.986313 -14.389807 0.000000 -0.000000 0.000000 -1.860268 3.067241 3.952820 0.894253 -0.496986 1.068686 1.197883 -0.716944 5.118398 5.053073 1.539354 0.641436 3.579960 -2.184988 7.184018 -24.591530 7.786527 3.668584 -62.902282 -3.695221 6.749688 11.611126 -23.381229 4.793151 -1.408994 -0.945582 -8.733098 22.639045 -5.078379 2.931602 62.984741 0.021475 10.117164 -15.747203 24.181711 -2.040447 6.029290 0.190188 -8.162029 
1.763212 0.716489 0.987014 -89.370230 2.118659 86.902795 2.453945 -1.420249 6.300642 -1.980284 -14.211381 4.230873 5.126783 10.176886 -20.002988 0.000000 -0.000000 0.000000 2.558209 -3.058543 3.402956 3.679168 1.169605 6.812203 2.673407 -5.947462 -14.409238 0.000000 -0.000000 0.000000 -1.878488 3.125642 4.139423 0.883801 -0.522937 1.089279 1.212645 -0.708591 4.986648 4.940163 1.563753 0.938206 3.627403 -2.100499 7.358988 -24.590111 7.564073 3.670747 -62.850262 -4.046680 6.742025 11.644753 -23.829891 4.562739 -1.115567 -0.843553 -8.689518 22.573983 -4.993189 2.966473 63.011206 0.030267 9.985389 -15.819346 24.426248 -2.211588 6.005875 0.149555 -8.160533 
1.763737 0.716885 0.987321 -89.473601 2.054836 86.844601 2.380124 -1.435138 6.315549 -1.967072 -14.035871 4.337655 5.273307 10.167535 -20.077156 0.000000 -0.000000 0.000000 2.409477 -3.347923 3.397120 3.750892 1.257319 6.938838 2.662556 -5.679667 -14.406993 0.000000 -0.000000 0.000000 -1.890764 3.221582 4.220028 0.895194 -0.538066 1.180002 1.220330 -0.673177 4.848989 4.772616 1.594036 1.154571 3.641105 -2.025682 7.451176 -24.667681 7.526105 3.567261 -62.860137 -4.238887 6.769895 11.786477 -24.690975 4.306479 -1.101361 -0.736416 -8.766394 22.592498 -4.884814 2.962558 62.878183 0.097370 9.973322 -15.802347 24.759573 -2.217242 6.077293 0.019271 -7.974018 
1.764566 0.717267 0.987138 -89.267030 2.016860 86.877319 2.378842 -1.656742 6.124265 -2.042454 -14.022010 4.504065 5.191856 10.081982 -20.128435 0.000000 -0.000000 0.000000 2.396774 -3.306201 3.385261 3.758368 1.072059 6.816393 2.669942 -5.713321 -14.410280 0.000000 -0.000000 0.000000 -1.925077 3.138296 4.317359 0.928292 -0.644646 1.167575 1.214058 -0.689383 4.836010 4.925593 1.448985 1.236916 3.576541 -2.088902 7.483503 -24.589535 7.506825 3.536801 -62.984515 -4.478572 6.964057 12.046151 -25.721941 4.196124 -1.219152 -1.017336 -9.140765 22.503845 -4.838533 2.872280 63.009299 0.200332 10.066037 -15.968710 25.130949 -2.316346 6.220818 0.251951 -8.206967 
1.765123 0.717716 0.987246 -89.112137 2.057058 86.853886 2.448690 -1.146398 6.103946 -1.817792 -14.484567 4.390599 5.170605 9.846943 -19.973629 0.000000 -0.000000 0.000000 2.491415 -3.424890 3.415651 3.697674 0.955848 6.788482 2.667654 -5.676759 -14.330354 0.000000 -0.000000 0.000000 -1.871094 2.991443 4.332855 0.935736 -0.663207 1.217501 1.209111 -0.675547 4.864366 4.976595 1.502649 1.376903 3.638084 -2.052770 7.573778 -24.641144 7.417069 3.387573 -62.971191 -4.821828 7.062652 12.125384 -26.816036 4.086707 -0.886019 -0.840818 -9.013156 22.526412 -4.743000 2.808126 63.081656 0.357482 10.016341 -16.118118 25.634513 -2.631856 6.262028 0.297428 -8.252518 
